<?xml version="1.0" encoding="UTF-8"?>
<svg id="Layer_2" xmlns="http://www.w3.org/2000/svg" viewBox="0 0 1303.09 733.02">
  <defs>
    <style>
      .cls-1 {
        fill: #fff;
      }
    </style>
  </defs>
  <g id="Logo_4">
    <g id="Text">
      <g>
        <polygon points="1037.35 423 891.21 575 1303.09 575 1303.09 733.02 621.74 733 622.74 567 765.4 423 608.03 423 607.67 273 914 273 1028.92 157 607 157 607 0 1302.74 0 1302.74 146.97 1181.57 273 1303.09 273 1303.09 423 1037.35 423"/>
        <polygon class="cls-1" points="618 567 618 733 0 733 0 0 607 0 607 157 227 157 227 273 607.29 273 607.65 423 227 423 227 567 618 567"/>
      </g>
    </g>
  </g>
</svg>